<?xml version="1.0" encoding="utf-8"?>
<!-- Generator: Adobe Illustrator 27.0.0, SVG Export Plug-In . SVG Version: 6.00 Build 0)  -->
<svg version="1.1" id="Layer_1" xmlns="http://www.w3.org/2000/svg" xmlns:xlink="http://www.w3.org/1999/xlink" x="0px" y="0px"
	 viewBox="0 0 1080 674" style="enable-background:new 0 0 1080 674;" xml:space="preserve">
<style type="text/css">
	.st0{clip-path:url(#SVGID_00000152956328062674103340000004034942641285898660_);}
	.st1{fill:#FDFAF6;}
	.st2{fill:#FEEBF3;}
	.st3{fill:#F5ECEA;}
	.st4{fill:#EBF0F0;}
</style>
<g>
	<g id="tan">
		<g>
			<defs>
				<rect id="SVGID_1_" x="-21.9" y="-22.6" width="1122.3" height="723.5"/>
			</defs>
			<clipPath id="SVGID_00000049180421929823485700000012232666103310165911_">
				<use xlink:href="#SVGID_1_"  style="overflow:visible;"/>
			</clipPath>
			<g style="clip-path:url(#SVGID_00000049180421929823485700000012232666103310165911_);">
				<g>
					<polyline class="st1" points="1100.4,-22.6 -21.9,-22.6 -21.9,700.8 1100.4,700.8 1100.4,-22.6 					"/>
				</g>
				<g>
					<path class="st2" d="M939.3,283.2c-39.4,0-90.1,14.4-142.3,55.1c-51.6,40.3-43.7,56.2-92.7,103.5
						C590,552.2,488.8,521.5,423.1,605.2c-26.8,34.2-54.3,95.9-35.4,213.6l0,0c48.6-2.4,97.1-4.9,145.7-7.3
						c-3.3-60.5,5.4-124.8,47.6-168.4c47-48.6,89.3-23.5,156.8-77.3c73-58.2,63.6-119.5,129.6-141.8c43.8-14.8,98.6-6.5,134.1-26.3
						c51.4-28.6,23-90.9-16.2-106.5C973.1,286.2,957.4,283.2,939.3,283.2"/>
					<path class="st3" d="M273.9,470.4c-39.4,0-90.1,14.4-142.3,55.1C80,565.8,87.9,581.7,38.9,629.1
						c-114.4,110.4-215.5,79.7-281.2,163.4c-26.8,34.2-54.3,95.9-35.4,213.5l0,0c48.6-2.4,97.1-4.9,145.7-7.3
						c-3.3-60.4,5.4-124.8,47.6-168.4c47-48.6,89.3-23.5,156.8-77.3c73-58.2,63.6-119.5,129.6-141.8c43.8-14.8,98.6-6.5,134.1-26.3
						c51.4-28.6,23-90.9-16.2-106.5C307.6,473.5,292,470.4,273.9,470.4"/>
					<path class="st2" d="M460.7-5.8c-43.8,0-99.3,14.9-157.4,56.4c-60.8,43.5-52.5,62.1-110.8,113.8
						C56.6,285.2-57.5,245.3-136.5,337.8c-32.3,37.8-66.6,107-50.6,242.3v0c55.6-0.5,111.2-1,166.8-1.4
						c-0.9-69.2,12.1-142.3,62.4-190.2c56.1-53.3,103.2-22.6,182.8-80.9c86.2-63,78.3-133.5,154.8-155.9
						c50.8-14.8,113-2.7,154.5-23.6c60.1-30.2,30.6-102.7-13.4-122.5C505.2-1.3,484.7-5.8,460.7-5.8"/>
					<path class="st3" d="M358.9-201.5c-14.3,0-26.9,1.7-37.8,4.1C217.2-174.3,201.3-69.8,52.3-14.3C-11.6,9.5-22.5-4.6-81.1,24.6
						C-167.6,67.6-202.2,132.1-205,174.1c-2.2,32.6,23.7,71.5,57.8,71.5c9.9,0,20.5-3.3,31.3-10.9c33.2-23.5,49.3-76.5,81.6-109.6
						c48.6-49.9,99.9-14.9,183.9-55.6C227.2,31.8,222.8-17.2,287-38.6c15.8-5.3,31.9-7.6,48-7.6c42.8,0,85.9,16.3,124.4,37.4
						c23.2-42.8,46.3-85.5,69.5-128.3C456.2-187.5,400.3-201.5,358.9-201.5"/>
					<path class="st3" d="M1375,356.5c-5.6,0-10.9,0.3-15.9,0.7c-105.9,9.9-134.9,111.5-289.7,147.9c-66.3,15.6-75.4,0.3-137.2,21.8
						c-91.3,31.9-133.7,91.4-141.7,132.8c-6.6,33.9,16.9,78.6,54.1,78.6c8.3,0,17.2-2.2,26.7-7.3c35.8-19.1,58.6-69.7,94.7-98.5
						c22.6-18,43.9-21.5,67.4-21.5c7.2,0,14.7,0.3,22.4,0.7c7.8,0.3,15.8,0.7,24.3,0.7c21.8,0,46.3-2.1,75.3-11.9
						c81.8-27.6,83.6-76.7,149.9-89.9c9.6-1.9,19.1-2.8,28.6-2.8c49.6,0,97.6,24.2,138.7,54c28.4-39.5,56.7-79,85.1-118.5h0
						C1479.4,372.6,1418.1,356.5,1375,356.5"/>
					<g>
						<path class="st4" d="M1162.8-86.8c-77.6,0.9-155.1,1.8-232.7,2.6v0c-19.6,44-53.8,101-115,138c-73.2,44.3-117,18.8-170.7,66.4
							c-58.8,51.9-20.3,111.5-71.7,154.8c-51.3,43.3-106.2,39.2-149.5,61c-43.4,21.9-69.7,66.8-54.3,102.8
							c6.4,15,24.8,20.6,48.4,20.6c33.2,0,76.5-11.2,110.5-23.5c58.1-21,118.7-46.9,153-97.3c34.3-50.4,15.8-100.5,76.8-153.9
							c46.3-40.5,95.2-14.4,176.9-31.9c60.8-13,146.1-51.4,236.2-172.5L1162.8-86.8"/>
					</g>
				</g>
			</g>
		</g>
	</g>
</g>
</svg>
