<?xml version="1.0" encoding="UTF-8"?>
<svg id="tan" xmlns="http://www.w3.org/2000/svg" xmlns:xlink="http://www.w3.org/1999/xlink" viewBox="0 0 1080 674">
  <defs>
    <style>
      .cls-1 {
        fill: none;
      }

      .cls-2 {
        clip-path: url(#clippath);
      }

      .cls-3 {
        fill: #fff;
      }

      .cls-4 {
        fill: #fbf5e8;
      }

      .cls-5 {
        fill: #fde3ee;
      }

      .cls-6 {
        fill: #ceecee;
        opacity: .5;
      }

      .cls-7 {
        fill: #f29ea6;
        opacity: .3;
      }
    </style>
    <clipPath id="clippath">
      <rect class="cls-1" x="-12.22" y="-9.75" width="1103.31" height="698.72"/>
    </clipPath>
  </defs>
  <g class="cls-2">
    <rect class="cls-3" x="-12.22" y="-9.75" width="1103.31" height="698.72"/>
    <path class="cls-6" d="M344.76,888.75c-18.94-117.66,8.55-179.35,35.38-213.55,65.68-83.71,166.84-52.95,281.21-163.4,49.01-47.32,41.07-63.24,92.66-103.49,76.21-59.46,149.23-62.82,188.39-47.19s67.56,77.92,16.18,106.52c-35.49,19.76-90.33,11.45-134.12,26.27-66,22.33-56.6,83.64-129.58,141.81-67.48,53.79-109.77,28.68-156.81,77.29-42.2,43.61-50.88,107.96-47.58,168.41-48.57,2.44-97.15,4.88-145.72,7.32Z"/>
    <path class="cls-5" d="M-317.67,979.19c-18.94-117.66,8.55-179.35,35.38-213.55,65.68-83.71,166.84-52.95,281.21-163.4,49.01-47.32,41.07-63.24,92.66-103.49,76.21-59.46,149.23-62.82,188.39-47.19s67.56,77.92,16.18,106.52c-35.49,19.76-90.33,11.45-134.12,26.27-66,22.33-56.6,83.64-129.58,141.81-67.48,53.79-109.77,28.68-156.81,77.29-42.2,43.61-50.88,107.96-47.58,168.41-48.57,2.44-97.15,4.88-145.72,7.32Z"/>
    <path class="cls-6" d="M-256.11,646.12c-16.05-135.34,18.28-204.52,50.57-242.32C-126.52,311.27-12.4,351.22,123.53,230.45c58.24-51.74,49.93-70.31,110.78-113.84,89.9-64.32,173.49-64.69,217.49-44.97,44,19.73,73.5,92.24,13.42,122.48-41.49,20.89-103.75,8.79-154.5,23.64-76.48,22.38-68.64,92.88-154.79,155.88-79.65,58.25-126.78,27.55-182.84,80.86-50.29,47.83-63.26,120.94-62.36,190.16-55.61,.48-111.23,.96-166.84,1.44Z"/>
    <path class="cls-7" d="M528.96-137.06c-97.95-67.9-165.46-69.74-207.89-60.31C217.2-174.27,201.26-69.76,52.25-14.29-11.59,9.47-22.52-4.56-81.1,24.59c-86.54,43.06-121.1,107.47-123.91,149.54-2.81,42.07,41.1,94.59,89.1,60.59,33.15-23.48,49.33-76.53,81.61-109.63,48.64-49.89,99.88-14.93,183.86-55.63C227.21,31.82,222.83-17.17,286.99-38.6c57.56-19.23,119.35,.73,172.44,29.81,23.18-42.76,46.35-85.51,69.53-128.27Z"/>
    <path class="cls-7" d="M1581.79,485.14c-88.64-79.67-155.38-89.98-198.67-85.95-105.94,9.86-134.89,111.55-289.69,147.85-66.33,15.55-75.41,.26-137.18,21.82-91.27,31.85-133.65,91.4-141.72,132.79-8.07,41.39,28.89,99,80.78,71.3,35.84-19.13,58.56-69.72,94.74-98.51,54.52-43.38,100.96-2.26,189.4-32.09,81.77-27.58,83.57-76.73,149.92-89.93,59.52-11.85,118.31,15.72,167.33,51.24,28.37-39.51,56.73-79.01,85.1-118.52Z"/>
    <path class="cls-4" d="M930.15-84.14c-19.59,44.02-53.76,100.98-115,138-73.2,44.25-116.97,18.84-170.74,66.35-58.77,51.93-20.35,111.46-71.66,154.81-51.31,43.35-106.16,39.16-149.5,61.04-43.35,21.88-69.66,66.78-54.29,102.84,15.37,36.05,100.8,18.1,158.93-2.87,58.13-20.97,118.72-46.89,153-97.31,34.29-50.42,15.79-100.51,76.75-153.93,46.27-40.54,95.24-14.4,176.93-31.85,60.76-12.97,146.1-51.44,236.2-172.51l-7.96-67.23c-77.55,.88-155.11,1.77-232.66,2.65Z"/>
  </g>
</svg>