<svg width="190" height="42" viewBox="0 0 190 42" fill="none" xmlns="http://www.w3.org/2000/svg">
<path fill-rule="evenodd" clip-rule="evenodd" d="M10.1713 13.3569C10.7167 8.72102 11.4871 4.14325 12.1651 0.121314L12.1636 0.119823C12.177 0.040845 12.2515 -0.0113105 12.3305 0.00210088C12.7657 0.0773637 14.1302 0.312861 15.4946 0.548336C16.8587 0.783751 18.2226 1.01914 18.6577 1.09439C18.7382 1.1078 18.7903 1.18231 18.7769 1.26277L18.7416 1.47201C18.1092 5.21582 17.4294 9.24082 16.9276 13.3003C16.9157 13.3912 16.9872 13.4687 17.0781 13.4657C19.8409 13.3554 22.7661 13.117 25.8179 12.6997C25.8999 12.6893 25.9744 12.7444 25.9863 12.8264L26.8655 19.173C26.8774 19.2549 26.8208 19.3309 26.7388 19.3414C23.0984 19.8376 18.7397 20.1669 16.4076 20.1997C16.3331 20.1997 16.272 20.2593 16.2675 20.3338C16.0648 23.5645 16.1379 26.6759 16.4761 28.9589C16.8293 31.3386 17.8545 35.0223 20.8512 35.0223C24.5528 35.0223 29.8935 25.7461 29.3168 9.84013C29.2596 8.23324 29.0402 2.65422 28.9899 1.37384L28.9845 1.23744C28.983 1.16442 29.0337 1.10184 29.1052 1.08992C29.9278 0.951332 34.5607 0.166018 35.501 0.00657136C35.5904 -0.00833023 35.6709 0.0572367 35.6753 0.146646L36.8674 27.7489C36.8704 27.8263 36.9733 27.8487 37.0075 27.7801L44.7131 12.7608C44.7429 12.7027 44.8055 12.6714 44.8696 12.6819C45.2576 12.749 46.6442 12.9878 48.0563 13.231C49.4966 13.479 50.9636 13.7316 51.4248 13.8114C51.5068 13.8263 51.5604 13.9023 51.5455 13.9843C50.9167 17.3759 50.2088 23.3961 50.711 27.8815C51.2519 32.7156 52.4709 35.1162 54.4364 35.1162C55.4214 35.1162 55.9564 34.9165 56.1754 34.8077C56.244 34.7735 56.2723 34.6915 56.2395 34.6215C54.5929 31.0645 54.3142 26.8831 54.8715 23.7388C55.4572 20.4396 58.6074 11.9651 65.8108 12.8204C73.1006 13.6877 73.0202 21.6019 72.6014 24.4735C71.8772 29.4387 68.1265 34.2117 67.5096 34.9687C67.4738 35.0134 67.5021 35.0819 67.5602 35.0879C72.965 35.6243 74.7205 28.1706 74.9529 27.0515C74.9678 26.974 75.0438 26.9233 75.1228 26.9367L81.2295 27.9739C81.3129 27.9888 81.3666 28.0663 81.3517 28.1482C81.0685 29.6369 78.4175 41.801 67.07 41.7757C64.7364 41.7712 62.7679 41.1886 61.1391 40.2289C59.0738 41.2258 56.697 41.8875 54.0087 41.7757C50.3951 41.6252 47.905 39.5256 46.3925 36.9193C45.0335 34.5782 44.3883 31.6888 44.0783 28.9305C44.0694 28.8575 43.971 28.8396 43.9383 28.9067L37.614 41.6774C37.5842 41.7355 37.5201 41.7683 37.4546 41.7578L30.9918 40.6492C30.9232 40.6372 30.8725 40.5806 30.8681 40.5121L30.5462 35.3591C30.5417 35.2816 30.4374 35.2622 30.4046 35.3323C29.36 37.5154 26.256 41.7772 20.7603 41.7772C13.1233 41.7772 10.6332 34.3875 10.0267 31.0943C9.48728 28.1661 9.37999 24.4511 9.55881 20.3338C9.56178 20.2534 9.50069 20.1863 9.42022 20.1848C6.97338 20.1371 2.7458 19.778 0.127592 19.4934C0.0486137 19.4844 -0.00801235 19.4129 0.000928596 19.3339C0.0532165 18.8544 0.230029 17.2505 0.395067 15.7534C0.531049 14.5199 0.659038 13.3589 0.702793 12.959C0.711734 12.8771 0.783262 12.819 0.865221 12.8279C3.43574 13.1095 6.52037 13.3822 10.0133 13.4925C10.0938 13.494 10.1623 13.4359 10.1713 13.3569ZM62.0005 31.0168C62.0183 31.0689 62.0854 31.0838 62.1241 31.0451V31.0436C63.4251 29.7203 65.1074 26.3377 65.4725 25.1828C66.1789 22.9476 66.4098 19.6603 64.9808 19.4755C63.3476 19.2639 61.8127 22.5139 61.4655 24.9488C61.2196 26.667 61.2777 29.0021 62.0005 31.0168Z" fill="black"/>
<path fill-rule="evenodd" clip-rule="evenodd" d="M183.554 26.8845L189.874 27.941L189.875 27.9351C189.957 27.9485 190.012 28.026 189.998 28.1079C189.379 31.4936 185.777 41.8263 177.437 41.8263C171.993 41.8263 169.219 36.7896 168.369 32.9524C167.615 29.5564 167.377 25.3333 167.426 21.0029C167.426 20.9611 167.392 20.9254 167.349 20.9254C164.946 20.9269 162.622 20.8583 160.402 20.7495C160.34 20.7466 160.306 20.8151 160.343 20.8628C163.72 25.2439 164.45 30.9109 163.918 33.8287C163.358 36.9014 160.893 41.8323 156.077 41.8323C150.683 41.8323 147.868 37.6181 147.059 36.268C147.027 36.2189 146.954 36.2233 146.93 36.277C146.506 37.2277 144.42 41.8293 139.031 41.8293C130.859 41.8293 129.725 32.4503 129.49 29.4208C129.484 29.3448 129.381 29.3254 129.348 29.3939L123.306 41.7295C123.276 41.7891 123.212 41.8234 123.146 41.8114L116.731 40.7132C116.659 40.7013 116.607 40.6402 116.607 40.5672L116.589 36.3679C116.589 36.2979 116.5 36.268 116.457 36.3247C113.427 40.2781 108.827 41.8785 105.251 41.8278C101.448 41.7742 97.8506 39.6552 94.7153 36.6421C94.6706 36.5989 94.5946 36.6272 94.5902 36.6898L94.1997 41.6654C94.1938 41.7533 94.1133 41.8159 94.0269 41.801L87.6252 40.7162C87.5492 40.7028 87.4955 40.6357 87.5015 40.5582C87.6028 39.3169 88.3702 29.9274 88.4611 28.8202C88.4656 28.7502 88.4477 28.6831 88.4075 28.6265C86.4405 25.8369 82.8224 19.4844 81.3307 16.3849C81.2994 16.3208 81.3248 16.2388 81.3844 16.2001C81.7216 15.9859 82.7925 15.3047 83.9003 14.6C85.1275 13.8194 86.4001 13.0099 86.7713 12.7742C86.8339 12.734 86.9144 12.7459 86.9621 12.801C87.728 13.6817 88.6936 14.7546 89.4312 15.4252C89.4774 15.4669 89.5504 15.4371 89.5549 15.376L90.8022 0.145118C90.8096 0.0586887 90.8886 -0.00389791 90.975 0.0110037L97.2829 1.06455C97.3589 1.07796 97.4125 1.1465 97.4066 1.22399L96.058 18.2014C96.055 18.2401 96.0818 18.2744 96.1191 18.2818C103.214 19.6871 106.082 15.0869 107.014 11.1455C107.031 11.068 107.107 11.0188 107.185 11.0337L113.493 12.2169C113.579 12.2318 113.634 12.3167 113.614 12.4017C112.085 18.5098 109.268 21.1504 106.635 22.9967C103.024 25.5285 97.341 25.6611 93.6946 24.6076C93.629 24.5882 93.5754 24.6597 93.6126 24.7178C95.7719 27.9992 100.798 35.1758 106.111 35.07C114.626 34.9 115.867 19.3086 116.345 13.3025C116.357 13.1471 116.369 12.9982 116.381 12.8562C116.388 12.7697 116.467 12.7072 116.554 12.7221L123.061 13.8143C123.133 13.8278 123.185 13.8889 123.185 13.9619L123.188 17.8691L123.233 26.3153C123.233 26.3943 123.34 26.4181 123.374 26.3481L130.077 12.7936C130.105 12.7355 130.171 12.7027 130.235 12.7131L136.654 13.7816C136.73 13.7935 136.784 13.8605 136.778 13.938C136.763 14.1406 136.741 14.4277 136.714 14.7827C136.486 17.7546 135.892 25.4873 136.131 28.2614L136.14 28.3655C136.36 30.9111 136.713 35.0104 139.031 35.0104C140.843 35.0104 141.715 31.3997 142.135 29.1555C143.02 24.4243 143.674 14.1824 143.756 12.8621C143.761 12.7846 143.828 12.728 143.905 12.7355C149.441 13.3107 160.765 14.3389 167.644 14.2331C167.679 14.2331 167.706 14.2048 167.709 14.1705C168.062 9.00858 168.688 3.97781 169.304 0.143628C169.316 0.0676297 169.386 0.0169643 169.462 0.0303757C170.316 0.174921 174.917 0.955764 175.795 1.10478C175.875 1.11819 175.929 1.1927 175.916 1.27317C175.358 4.75567 174.793 9.24402 174.449 13.9187C174.446 13.9634 174.482 14.0006 174.527 13.9976C178.058 13.7592 181.69 13.4552 185.36 12.7176C185.441 12.7027 185.518 12.7533 185.535 12.8338L186.815 19.1119C186.831 19.1938 186.777 19.2728 186.697 19.2892C182.465 20.1401 178.263 20.4873 174.2 20.7302C174.162 20.7317 174.132 20.7629 174.132 20.8017C174.074 24.9488 174.293 28.7129 174.913 31.5055C175.209 32.8452 175.999 35.0416 177.4 35.0416C180.858 35.0416 182.961 29.2434 183.383 27.0022C183.398 26.9233 183.475 26.8711 183.554 26.8845ZM151.295 29.9766C152.015 32.0718 153.983 35.8568 156.196 35.0759V35.0774C158.187 34.3741 157.22 29.0497 156.166 26.8964C154.927 24.3602 152.83 22.0624 150.228 20.5692C150.178 20.5409 150.115 20.5767 150.115 20.6348C150.133 23.8386 150.328 27.1617 151.295 29.9766Z" fill="black"/>
</svg>
