<svg width="268" height="91" viewBox="0 0 268 91" fill="none" xmlns="http://www.w3.org/2000/svg">
<path fill-rule="evenodd" clip-rule="evenodd" d="M61.5405 0.526887C61.0947 0.412995 60.6499 0.299226 60.207 0.181184C57.9072 -0.118865 56.3071 -0.0188895 54.3071 0.281159C53.8149 0.386628 53.3105 0.479646 52.8027 0.573396C51.8652 0.746491 50.915 0.921784 50.0068 1.18118C41.5068 3.28116 34.707 7.98111 28.3071 13.6812C21.207 20.2812 15.707 28.0811 11.1069 36.5811C6.30711 45.4811 2.10691 54.9811 0.606915 65.0811C-0.592792 70.7812 0.207012 77.6811 1.10691 79.9811C2.80711 85.5811 7.00682 88.8811 12.9072 89.8811C14.707 90.1811 16.707 90.1811 18.207 90.1811C23.1069 89.2811 27.4072 87.1811 31.5068 84.3811C37.9072 80.0811 48.4072 67.2811 48.6069 66.8811C48.7671 67.0412 48.6069 71.1722 48.4853 74.3022C48.4551 75.0833 48.4272 75.802 48.4072 76.3811C48.3071 79.3811 48.207 82.3811 48.6069 85.3811C48.9072 87.6811 51.3071 88.7812 53.8071 88.4811C55.6069 88.2812 56.0068 87.3811 56.207 84.5811C56.3066 83.0385 56.3877 81.4959 56.4682 79.9549C56.7124 75.3021 56.956 70.6634 57.707 66.0811C58.6719 59.9189 63.9917 47.9134 66.9136 41.3196C67.9272 39.0324 68.6523 37.3963 68.8071 36.8811C69.4072 34.9811 68.4072 33.0811 66.9072 32.2812C65.4072 31.5811 63.8071 31.9811 62.3071 33.6812C61.5083 34.5794 60.9092 35.5774 60.31 36.5756L60.3071 36.5811C59.3179 38.2408 58.3486 39.9208 57.3769 41.605C55.3047 45.1975 53.2221 48.8089 50.9072 52.2812C45.0068 61.0811 38.4072 69.1811 30.1069 75.8811C26.0068 79.0811 21.8071 82.0811 16.3071 82.5811C12.6069 82.8811 9.90721 80.9811 8.80711 77.3811C7.80711 73.8811 8.10691 70.3811 8.70701 66.8811C10.5068 56.8811 14.3071 47.6812 19.3071 38.8811C24.3071 30.0811 30.207 22.1812 38.1069 15.7812C44.4072 10.6812 51.3071 7.68118 59.5068 8.28116C65.207 8.68118 68.5068 11.9811 68.5068 17.5811C68.4209 19.0509 67.8857 20.446 67.3545 21.8308C67.271 22.0478 67.188 22.2644 67.1069 22.4811C66.5068 23.9811 66.207 25.2812 67.4072 26.4811C68.6069 27.6812 70.207 27.8811 71.5068 26.9811C72.8071 26.0811 74.207 24.7812 75.0068 23.3811C78.3071 17.0811 75.3071 7.68118 69.0068 3.38113C66.7055 1.84683 64.1133 1.18436 61.5405 0.526887ZM239.607 47.0811C240.707 46.3811 241.807 45.7812 243.007 45.5811C245.507 45.1812 244.907 47.8811 244.307 48.6812C241.007 53.4811 237.007 57.0811 231.507 58.9811L231.336 59.0324C230.468 59.2993 228.317 59.96 229.807 56.9811C232.307 52.8811 235.507 49.4811 239.607 47.0811ZM137.207 49.9811C138.907 48.3811 140.807 47.0811 143.207 46.0811C145.699 45.2217 146.05 46.2086 146.29 46.8841C146.329 46.9947 146.365 47.0968 146.407 47.1812C146.407 47.7812 146.007 48.5811 145.607 49.1812C142.607 53.2812 139.007 56.5811 134.307 58.5811C133.707 58.7812 133.107 58.9811 132.507 59.0811C132.007 59.1812 131.207 59.1812 131.007 58.8811C130.707 58.5811 130.807 57.7812 131.107 57.3811C131.415 56.9766 131.722 56.5668 132.031 56.1547C133.632 54.0204 135.279 51.8251 137.207 49.9811ZM105.607 48.9811C105.307 49.5811 104.807 49.9811 104.107 50.7812C103.007 43.3811 121.907 8.48111 125.507 9.88113C126.307 10.7812 123.707 16.8811 122.707 19.0811C117.807 29.4811 111.907 39.3811 105.607 48.9811ZM200.607 51.0811L200.007 50.7812C200.007 50.1812 200.007 49.5811 200.207 49.0811C204.607 35.8811 210.407 23.3811 219.407 12.3811C220.007 11.5811 220.707 10.8811 221.507 10.2812C222.007 9.88113 222.807 9.68118 223.307 9.88113C223.607 9.98111 223.907 10.9811 223.807 11.4811C223.507 13.3811 223.207 15.2812 222.507 17.0811C218.407 27.5811 212.507 36.8811 205.407 45.5811C204.207 46.9811 203.107 48.3811 202.007 49.7812C201.607 50.2812 201.107 50.6812 200.607 51.0811ZM169.807 50.981C169.707 50.9561 169.607 50.9311 169.507 50.8811C169.574 50.4776 169.551 50.0287 169.528 49.5955C169.518 49.3847 169.507 49.1775 169.507 48.9811C174.007 35.8811 179.707 23.3811 188.607 12.5811C189.307 11.6812 190.207 10.7812 191.107 10.0811C192.207 9.18118 193.307 9.78116 193.107 11.1812C192.907 13.1812 192.507 15.1812 191.807 17.0811C187.807 27.5811 181.807 36.8811 174.707 45.5811C174.308 46.0885 173.923 46.596 173.541 47.0987C172.869 47.9828 172.208 48.8523 171.507 49.6812C171.107 50.2812 170.607 50.6812 170.107 51.0811C170.007 51.031 169.907 51.006 169.807 50.981ZM87.707 49.4811C90.4072 47.1812 93.5068 45.9811 95.9072 45.9811C97.8071 45.9811 98.4072 46.6812 98.0068 48.6812C97.7739 49.9126 97.5522 51.1441 97.3305 52.3755C96.8857 54.844 96.4409 57.3125 95.9072 59.7812C95.707 60.6811 95.4072 61.6811 94.8071 62.2811L94.7939 62.2946C90.998 66.2901 87.2026 70.2853 83.207 73.9811C82.0068 75.0811 80.1069 75.6811 78.4072 76.1811C76.8071 76.6811 75.207 75.5811 75.1069 73.8811C75.0068 72.3811 75.1069 70.6811 75.5068 69.1811C77.6069 61.4811 81.4072 54.6812 87.707 49.4811ZM216.351 76.7909C216.835 76.3836 217.318 75.977 217.807 75.5811C220.607 80.8811 223.107 82.8811 228.907 83.5811C231.907 83.7812 235.007 83.5811 237.907 82.7812C252.207 78.7812 261.007 68.5811 267.407 55.8811C268.407 54.0811 267.007 51.7812 265.007 51.8811C263.807 51.8811 262.407 52.5811 261.507 53.4811C260.757 54.2311 260.202 55.1763 259.647 56.1216C259.315 56.6889 258.982 57.2561 258.607 57.7812C254.307 64.0811 249.307 69.7812 242.407 73.4811C238.407 75.5811 234.207 76.9811 229.607 76.3811C226.407 75.9811 224.907 74.2812 224.707 71.4811C224.507 68.7812 225.407 67.7812 229.007 66.9811C235.007 65.6811 240.307 62.8811 245.007 58.8811C248.307 56.0811 250.907 52.6812 251.907 48.3811C253.207 43.0811 249.807 38.6812 244.407 38.7812C242.307 38.7812 240.107 39.2812 238.207 40.1812C229.807 44.0811 224.507 50.9811 220.607 59.0811C218.307 63.7812 215.407 67.9811 211.707 71.5811C209.807 73.3811 207.607 74.9811 205.207 76.0811C202.407 77.4811 199.907 76.4811 198.507 74.0811C196.107 70.0811 196.807 64.7812 200.107 61.5811C209.607 52.1812 217.907 41.8811 224.107 30.0811C227.407 23.7812 230.407 17.2812 231.107 10.0811C231.607 3.88113 226.207 -0.218841 220.507 2.28116C217.407 3.68118 215.107 5.98111 213.107 8.58109C203.507 21.0811 197.207 35.1812 193.007 50.2812C192.762 51.1692 192.564 52.0761 192.367 52.9788C191.92 55.0236 191.478 57.0468 190.507 58.7812C188.407 62.5811 185.807 66.1811 182.907 69.4811C180.807 71.8811 178.207 73.9811 175.407 75.6811C172.307 77.4811 169.307 76.4811 167.807 73.8811C165.507 69.8811 166.207 64.6811 169.507 61.4811C179.007 52.1812 187.307 41.8811 193.507 29.9811C196.707 23.8811 199.707 17.6812 200.407 10.5811C200.707 7.38113 200.007 4.58109 197.107 2.68118C194.107 0.781159 191.007 1.18118 188.407 3.18118C185.707 5.28116 183.107 7.78116 181.007 10.5811C171.907 22.9811 165.907 36.9811 162.007 51.7812C161.888 52.2284 161.795 52.6935 161.703 53.1579C161.485 54.2506 161.269 55.339 160.707 56.1812C155.407 64.5811 148.907 71.7812 139.207 75.2812C136.207 76.3811 133.107 76.9811 129.907 76.2812C127.507 75.6811 126.007 73.8811 125.907 71.3811C125.807 68.9811 126.607 68.0811 129.407 67.1811C129.807 66.9811 130.307 66.8811 130.807 66.7812C136.707 65.5811 141.807 62.6811 146.307 58.7812C149.607 56.0811 152.107 52.7812 153.207 48.4811C154.507 43.1812 151.107 38.5811 145.607 38.7812C143.507 38.7812 141.307 39.2812 139.407 40.1812C131.007 44.1812 125.807 51.2812 121.707 59.2812C119.207 63.9811 115.607 67.6811 111.307 70.6811C110.333 71.3626 108.981 71.5702 107.711 71.7652L107.607 71.7812C106.107 72.0811 105.007 71.2812 104.207 69.9811C102.207 66.7812 102.507 62.6811 104.707 59.6812C105.763 58.258 106.83 56.8454 107.895 55.4347C111.468 50.7002 115.025 45.989 118.107 40.9811C122.507 33.5811 126.307 25.8811 130.107 18.1812C131.707 14.9811 132.807 11.5811 132.607 7.98111C132.407 2.68118 128.507 0.181184 123.707 2.28116C122.407 2.88113 121.107 3.68118 120.007 4.68118C115.207 8.78116 111.507 13.8811 108.907 19.5811C106.642 24.5467 104.529 29.6641 102.435 34.7348L101.507 36.9811C100.807 38.5811 99.9072 39.6812 97.9072 39.4811C93.6069 39.0811 89.5068 40.0811 85.9072 42.3811C81.1069 45.0811 77.6069 49.1812 74.6069 53.6812C70.8071 59.2812 68.5068 65.4811 68.3071 72.3811C68.1069 78.8811 72.9072 83.9811 78.9072 83.0811C81.1069 82.7812 83.4072 81.9811 85.207 80.6811C87.459 79.0832 89.5522 77.2214 91.6406 75.3641C92.4272 74.6644 93.2134 73.9653 94.0068 73.2812C96.3071 71.2812 96.8071 71.2812 98.4072 73.7812C102.207 79.5811 107.207 80.7812 113.307 77.3811C114.614 76.6935 115.873 75.864 117.15 75.0228C117.73 74.6406 118.313 74.256 118.907 73.8811C118.99 74.1309 119.073 74.3961 119.159 74.6681C119.381 75.3763 119.618 76.1309 119.907 76.7812C122.207 81.5811 126.407 83.3811 131.407 83.5811C138.007 83.8811 144.007 81.7812 149.407 78.1811C151.995 76.5028 154.387 74.531 156.72 72.6078C157.723 71.7809 158.715 70.9629 159.707 70.1811L159.756 70.3569C160.246 72.1232 160.836 74.249 161.707 76.2812C164.207 81.6811 169.007 84.0811 174.807 82.9811C179.107 82.1811 182.507 79.8811 185.507 76.9811C186.728 75.8278 187.857 74.5824 188.957 73.3698C189.478 72.7951 189.993 72.2278 190.507 71.6811C191.007 73.2812 191.507 74.8811 192.207 76.3811C194.507 80.8811 198.107 83.6811 203.307 83.0811C206.007 82.7812 208.807 81.7812 211.307 80.4811C213.148 79.4838 214.754 78.1333 216.351 76.7909Z" fill="#9A2CAB" fill-opacity="0.7"/>
</svg>
